<svg width="105" height="29" viewBox="0 0 105 29" fill="none" xmlns="http://www.w3.org/2000/svg">
<path d="M0 14.5C0 6.49187 6.49187 0 14.5 0H90.5C98.5081 0 105 6.49187 105 14.5C105 22.5081 98.5081 29 90.5 29H14.5C6.49187 29 0 22.5081 0 14.5Z" fill="#F93A73"/>
<path d="M39.8927 19L39.0887 16.864H35.4887L34.6967 19H33.1727L36.4847 10.492H38.1527L41.4647 19H39.8927ZM37.2887 12.052L35.9927 15.532H38.5847L37.2887 12.052ZM49.7887 19H48.6247L48.5167 17.92C48.3087 18.272 47.9807 18.572 47.5327 18.82C47.0847 19.06 46.5447 19.18 45.9127 19.18C44.7527 19.18 43.7647 18.78 42.9487 17.98C42.1327 17.172 41.7247 16.092 41.7247 14.74C41.7247 13.844 41.9287 13.052 42.3367 12.364C42.7527 11.676 43.2807 11.164 43.9207 10.828C44.5607 10.484 45.2567 10.312 46.0087 10.312C46.9927 10.312 47.8167 10.556 48.4807 11.044C49.1527 11.532 49.6087 12.152 49.8487 12.904L48.4927 13.42C48.3407 12.908 48.0487 12.484 47.6167 12.148C47.1847 11.812 46.6487 11.644 46.0087 11.644C45.2487 11.644 44.5887 11.912 44.0287 12.448C43.4687 12.984 43.1887 13.748 43.1887 14.74C43.1887 15.724 43.4607 16.492 44.0047 17.044C44.5487 17.588 45.2127 17.86 45.9967 17.86C46.7647 17.86 47.3487 17.66 47.7487 17.26C48.1567 16.852 48.3847 16.416 48.4327 15.952H45.6247V14.692H49.7887V19ZM55.8297 19L54.0417 15.64H52.9857V19H51.5337V10.492H54.7977C55.5977 10.492 56.2417 10.74 56.7297 11.236C57.2177 11.724 57.4617 12.336 57.4617 13.072C57.4617 13.68 57.2897 14.2 56.9457 14.632C56.6017 15.064 56.1337 15.352 55.5417 15.496L57.4617 19H55.8297ZM52.9857 14.368H54.5337C54.9737 14.368 55.3257 14.252 55.5897 14.02C55.8617 13.78 55.9977 13.464 55.9977 13.072C55.9977 12.672 55.8617 12.356 55.5897 12.124C55.3257 11.884 54.9737 11.764 54.5337 11.764H52.9857V14.368ZM64.2545 19H58.9985V10.492H64.2545V11.836H60.4385V14.092H63.8945V15.4H60.4385V17.656H64.2545V19ZM71.2389 19H65.9829V10.492H71.2389V11.836H67.4229V14.092H70.8789V15.4H67.4229V17.656H71.2389V19Z" fill="white"/>
</svg>
