<svg width="46" height="40" viewBox="0 0 46 40" fill="none" xmlns="http://www.w3.org/2000/svg">
<path d="M39.6437 6.84616H33.3459L32.6125 4.65385C32.2591 3.58936 31.5776 2.66314 30.6651 2.00709C29.7526 1.35104 28.6557 0.998617 27.5305 1H18.4695C17.3446 0.999148 16.2481 1.3518 15.336 2.0078C14.4238 2.66379 13.7425 3.58972 13.3889 4.65385L12.6541 6.84616H6.35627C4.93617 6.8477 3.57469 7.41055 2.57053 8.41119C1.56637 9.41184 1.00155 10.7686 1 12.1837V33.6683C1.0031 35.0824 1.56861 36.4376 2.5726 37.437C3.57659 38.4364 4.93719 38.9984 6.35627 39H39.6496C41.0687 38.9969 42.4287 38.4334 43.4315 37.4329C44.4344 36.4324 44.9985 35.0766 45 33.6625V12.1778C44.9969 10.7637 44.4314 9.40851 43.4274 8.40912C42.4234 7.40974 41.0628 6.8477 39.6437 6.84616V6.84616ZM42.0667 33.6625C42.0659 34.3026 41.8104 34.9163 41.3562 35.3689C40.9019 35.8215 40.2861 36.0761 39.6437 36.0769H6.35627C5.7139 36.0761 5.09807 35.8215 4.64385 35.3689C4.18963 34.9163 3.93411 34.3026 3.93333 33.6625V12.1778C3.93566 11.5387 4.19187 10.9266 4.64592 10.4752C5.09997 10.0238 5.71492 9.77 6.35627 9.76923H13.7116C14.0193 9.769 14.3191 9.67234 14.5687 9.49293C14.8182 9.31352 15.0048 9.06045 15.102 8.76954L16.1712 5.57316C16.3318 5.09238 16.6402 4.67422 17.0527 4.37802C17.4653 4.08182 17.961 3.92265 18.4695 3.92308H27.5305C28.0392 3.92253 28.5352 4.08183 28.9478 4.37834C29.3604 4.67484 29.6687 5.09345 29.8288 5.57462L30.898 8.76954C30.9952 9.06045 31.1818 9.31352 31.4313 9.49293C31.6809 9.67234 31.9807 9.769 32.2884 9.76923H39.6437C40.2861 9.77001 40.9019 10.0246 41.3562 10.4773C41.8104 10.9299 42.0659 11.5436 42.0667 12.1837V33.6625Z" fill="#4D7CFE" stroke="white" stroke-width="0.8"/>
<path d="M23.0004 11.231C20.8248 11.231 18.698 11.8738 16.8891 13.0783C15.0802 14.2828 13.6703 15.9947 12.8377 17.9977C12.0051 20.0007 11.7873 22.2047 12.2117 24.331C12.6362 26.4573 13.6838 28.4105 15.2222 29.9435C16.7606 31.4765 18.7206 32.5205 20.8544 32.9434C22.9882 33.3664 25.1999 33.1493 27.2099 32.3196C29.2199 31.49 30.9378 30.085 32.1465 28.2824C33.3552 26.4798 34.0004 24.3605 34.0004 22.1925C33.9973 19.2863 32.8373 16.5 30.7751 14.4449C28.7129 12.3899 25.9168 11.2341 23.0004 11.231V11.231ZM23.0004 30.231C21.4049 30.231 19.8453 29.7595 18.5188 28.8762C17.1922 27.9929 16.1583 26.7375 15.5477 25.2687C14.9372 23.7998 14.7774 22.1836 15.0887 20.6243C15.4 19.065 16.1682 17.6326 17.2964 16.5084C18.4245 15.3842 19.8619 14.6187 21.4266 14.3085C22.9914 13.9983 24.6134 14.1575 26.0873 14.7659C27.5613 15.3743 28.8212 16.4046 29.7076 17.7266C30.5939 19.0485 31.067 20.6026 31.067 22.1925C31.0647 24.3237 30.2141 26.367 28.7018 27.874C27.1895 29.381 25.1391 30.2286 23.0004 30.231V30.231Z" fill="#4D7CFE" stroke="white" stroke-width="0.8"/>
<path d="M37.6667 15.6155C38.4767 15.6155 39.1333 14.9611 39.1333 14.1539C39.1333 13.3467 38.4767 12.6924 37.6667 12.6924C36.8567 12.6924 36.2 13.3467 36.2 14.1539C36.2 14.9611 36.8567 15.6155 37.6667 15.6155Z" fill="#4D7CFE"/>
</svg>
