<svg width="64" height="66" viewBox="0 0 64 66" fill="none" xmlns="http://www.w3.org/2000/svg">
<ellipse cx="47" cy="16.7463" rx="17" ry="16.7463" fill="#ECECEC"/>
<path fill-rule="evenodd" clip-rule="evenodd" d="M19.292 8.17885C18.7972 7.75023 18.1627 7.53736 17.505 7.57834C16.8473 7.6199 16.2456 7.91115 15.8103 8.39853L15.3658 8.89642C13.8104 7.64657 11.8266 6.89552 9.66747 6.89552C7.43095 6.89552 5.28466 7.70682 3.62411 9.18017C3.26388 9.49981 3.23493 10.0465 3.55942 10.4015C3.8838 10.7564 4.43892 10.7849 4.79915 10.4653C6.13661 9.27863 7.86559 8.62502 9.66747 8.62502C11.3829 8.62502 12.9601 9.21433 14.2052 10.1964L10.4873 14.36L9.15313 12.8268C8.72434 12.3339 8.12634 12.0351 7.46938 11.9852C6.81325 11.935 6.17505 12.1406 5.67466 12.563C4.64188 13.4351 4.52188 14.9722 5.40712 15.9895L8.59005 19.6474C9.05505 20.182 9.73145 20.4913 10.4461 20.4961L10.4632 20.4962C11.1722 20.4962 11.8472 20.1955 12.3154 19.6711L16.8423 14.6015C16.9087 14.9891 16.9442 15.3869 16.9442 15.7929C16.9442 19.7454 13.6799 22.9611 9.66747 22.9611C5.65509 22.9611 2.39071 19.7454 2.39071 15.7929C2.39071 14.9452 2.53919 14.1157 2.83216 13.3279C2.99892 12.8794 2.76501 12.3828 2.30974 12.2185C1.8547 12.0544 1.35032 12.2847 1.18356 12.7331C0.81958 13.7122 0.63501 14.7416 0.63501 15.7929C0.63501 20.6991 4.68688 24.6905 9.66747 24.6905C14.6481 24.6905 18.6999 20.6991 18.6999 15.7929C18.6999 14.8265 18.5414 13.8962 18.2507 13.0244L19.5151 11.6085C19.9503 11.1211 20.1668 10.496 20.1247 9.84821C20.0824 9.20048 19.7867 8.60759 19.292 8.17885ZM18.1967 10.4664L10.9972 18.5291C10.8629 18.6794 10.6697 18.7659 10.4666 18.767L10.4584 18.7669C10.2524 18.7656 10.0572 18.6765 9.92305 18.5223L6.74001 14.8642C6.48477 14.5709 6.51946 14.1276 6.81724 13.8761C6.94731 13.7663 7.10938 13.7074 7.27884 13.7074C7.29735 13.7074 7.31587 13.7081 7.3345 13.7096C7.52399 13.7239 7.69638 13.8102 7.82013 13.9523L9.81208 16.2415C9.97755 16.4317 10.2186 16.5419 10.4729 16.5435C10.7302 16.5417 10.9697 16.438 11.1376 16.2498L17.1283 9.5408C17.2538 9.40031 17.4274 9.31627 17.617 9.30438C17.8063 9.29237 17.9897 9.3539 18.1323 9.47742C18.275 9.60117 18.3602 9.77202 18.3724 9.95891C18.3847 10.1456 18.3222 10.3258 18.1967 10.4664ZM50.4873 12.3697H23.509C23.0241 12.3697 22.6311 11.9827 22.6311 11.5051C22.6311 11.0274 23.0241 10.6403 23.509 10.6403H50.4873C50.9721 10.6403 51.365 11.0275 51.365 11.5051C51.365 11.9827 50.9721 12.3697 50.4873 12.3697ZM23.509 14.9283H50.4873C50.9721 14.9283 51.365 15.3155 51.365 15.7931C51.365 16.2706 50.9721 16.6577 50.4873 16.6577H23.509C23.0241 16.6577 22.6311 16.2706 22.6311 15.7931C22.6311 15.3154 23.0241 14.9283 23.509 14.9283ZM23.509 20.9458H41.8156C42.3004 20.9458 42.6935 20.5587 42.6935 20.0811C42.6935 19.6036 42.3005 19.2164 41.8156 19.2164H23.509C23.0241 19.2164 22.6311 19.6034 22.6311 20.0811C22.6311 20.5587 23.0241 20.9458 23.509 20.9458ZM23.509 31.2951H50.4873C50.9721 31.2951 51.365 31.6821 51.365 32.1597C51.365 32.6373 50.9721 33.0243 50.4873 33.0243H23.509C23.0241 33.0243 22.6311 32.6373 22.6311 32.1597C22.6311 31.6821 23.0241 31.2951 23.509 31.2951ZM50.4873 35.583H23.509C23.0241 35.583 22.6311 35.9701 22.6311 36.4478C22.6311 36.9254 23.0241 37.3125 23.509 37.3125H50.4873C50.9721 37.3125 51.365 36.9254 51.365 36.4478C51.365 35.9701 50.9721 35.583 50.4873 35.583ZM41.8156 41.6005H23.509C23.0241 41.6005 22.6311 41.2134 22.6311 40.7358C22.6311 40.2583 23.0241 39.8712 23.509 39.8712H41.8156C42.3005 39.8712 42.6935 40.2583 42.6935 40.7358C42.6935 41.2134 42.3004 41.6005 41.8156 41.6005ZM19.292 49.4883C18.7972 49.0596 18.1627 48.847 17.505 48.8879C16.8473 48.9294 16.2456 49.2207 15.8103 49.708L15.3647 50.2072C13.8092 48.9572 11.8266 48.2049 9.66747 48.2049C4.687 48.2049 0.63501 52.1963 0.63501 57.1025C0.63501 62.0086 4.68688 66 9.66747 66C14.6481 66 18.6999 62.0086 18.6999 57.1025C18.6999 56.1365 18.5394 55.2077 18.2485 54.3364L19.5151 52.918C19.9503 52.4307 20.1668 51.8056 20.1247 51.1577C20.0824 50.5099 19.7867 49.917 19.292 49.4883ZM9.66747 64.2706C5.65497 64.2706 2.39071 61.055 2.39071 57.1025C2.39071 53.15 5.65509 49.9343 9.66747 49.9343C11.3829 49.9343 12.9601 50.5236 14.2053 51.5055L10.4873 55.6693L9.15325 54.1362C8.72446 53.6433 8.12645 53.3446 7.4695 53.2946C6.81337 53.2444 6.17517 53.4499 5.67477 53.8724C4.642 54.7445 4.522 56.2816 5.40724 57.2991L8.59016 60.9569C9.05516 61.4915 9.73157 61.8008 10.4462 61.8057L10.4633 61.8058C11.1723 61.8058 11.8473 61.5051 12.3156 60.9806L16.8425 55.911C16.9091 56.2987 16.9445 56.6965 16.9445 57.1025C16.9442 61.055 13.6799 64.2706 9.66747 64.2706ZM18.1967 51.7758L10.9972 59.8385C10.8629 59.9888 10.6697 60.0753 10.4666 60.0764L10.4584 60.0763C10.2524 60.075 10.0572 59.9859 9.92305 59.8317L6.74001 56.1736C6.48477 55.8803 6.51946 55.437 6.81724 55.1855C6.94731 55.0757 7.10938 55.0168 7.27884 55.0168C7.29735 55.0168 7.31587 55.0175 7.3345 55.019C7.52399 55.0333 7.69638 55.1196 7.82013 55.2617L9.81208 57.5509C9.97755 57.7411 10.2186 57.8513 10.4729 57.8529C10.7302 57.8565 10.9697 57.7475 11.1376 57.5592L17.1283 50.8502C17.2538 50.7097 17.4274 50.6257 17.617 50.6138C17.8063 50.6013 17.9897 50.6633 18.1323 50.7868C18.275 50.9106 18.3602 51.0814 18.3724 51.2682C18.3847 51.455 18.3222 51.6352 18.1967 51.7758ZM23.509 51.9498H50.4873C50.9721 51.9498 51.365 52.3368 51.365 52.8144C51.365 53.292 50.9721 53.679 50.4873 53.679H23.509C23.0241 53.679 22.6311 53.292 22.6311 52.8144C22.6311 52.3368 23.0241 51.9498 23.509 51.9498ZM50.4873 56.2377H23.509C23.0241 56.2377 22.6311 56.6248 22.6311 57.1024C22.6311 57.5799 23.0241 57.9671 23.509 57.9671H50.4873C50.9721 57.9671 51.365 57.58 51.365 57.1024C51.365 56.6249 50.9721 56.2377 50.4873 56.2377ZM23.509 60.5258H41.8156C42.3004 60.5258 42.6935 60.9127 42.6935 61.3904C42.6935 61.8681 42.3004 62.2552 41.8156 62.2552H23.509C23.0241 62.2552 22.6311 61.868 22.6311 61.3904C22.6311 60.9129 23.0241 60.5258 23.509 60.5258ZM17.505 28.2332C18.1627 28.1916 18.7972 28.4049 19.292 28.8336C19.7867 29.2623 20.0824 29.8552 20.1246 30.5029C20.1666 31.1507 19.9502 31.7758 19.515 32.2632L18.2497 33.6801C18.5406 34.5517 18.6998 35.4815 18.6998 36.4478C18.6998 41.3539 14.6481 45.3453 9.66747 45.3453C4.68688 45.3453 0.63501 41.3539 0.63501 36.4478C0.63501 31.5416 4.687 27.5502 9.66747 27.5502C11.8266 27.5502 13.8088 28.3031 15.3641 29.5531L15.8103 29.0533C16.2456 28.566 16.8473 28.2747 17.505 28.2332ZM14.4622 35.3032L18.1967 31.1211C18.3222 30.9805 18.3847 30.8003 18.3725 30.6135C18.3603 30.4266 18.2751 30.2558 18.1324 30.132C17.9898 30.0085 17.8064 29.9467 17.6171 29.959C17.4275 29.9709 17.254 30.0549 17.1284 30.1954L11.1377 36.9044C10.9711 37.0911 10.7309 37.198 10.4786 37.198H10.473C10.2187 37.1964 9.97766 37.0861 9.81219 36.896L7.82024 34.6067C7.69649 34.4646 7.52411 34.3784 7.33462 34.3641C7.14583 34.3491 6.96161 34.4088 6.81724 34.5306C6.51946 34.7821 6.48477 35.2254 6.74001 35.5187L9.92305 39.1767C10.0572 39.3311 10.2524 39.4202 10.4584 39.4215L10.4663 39.4216C10.6701 39.4204 10.863 39.3338 10.9972 39.1836L11.8124 38.2708C12.1325 37.9123 12.6873 37.877 13.0513 38.1927C13.4154 38.5081 13.4507 39.0546 13.1306 39.4131L12.3154 40.3259C11.8472 40.8502 11.1722 41.151 10.4632 41.151L10.4461 41.1508C9.73145 41.146 9.05505 40.8367 8.59005 40.3021L5.40712 36.6442C4.52188 35.6269 4.64188 34.0898 5.67466 33.2177C6.17505 32.7952 6.81325 32.5891 7.46938 32.6399C8.12634 32.6898 8.72434 32.9886 9.15313 33.4815L10.4872 35.0146L14.205 30.8511C12.9597 29.8693 11.3827 29.2796 9.66735 29.2796C5.65497 29.2796 2.3906 32.4953 2.3906 36.4478C2.3906 40.4003 5.65509 43.6159 9.66747 43.6159C13.6799 43.6159 16.9442 40.4003 16.9442 36.4478C16.9442 36.0419 16.9085 35.6441 16.842 35.2565L15.7804 36.4453C15.4602 36.804 14.9055 36.8391 14.5415 36.5235C14.1775 36.2081 14.142 35.6616 14.4622 35.3032Z" fill="#343F4D"/>
</svg>
