<svg width="79" height="63" viewBox="0 0 79 63" fill="none" xmlns="http://www.w3.org/2000/svg">
<ellipse cx="60.3471" cy="18.7895" rx="18.6528" ry="18.7895" fill="#ECECEC"/>
<path fill-rule="evenodd" clip-rule="evenodd" d="M65.8615 3.99302L62.3663 1.31884C62.1342 1.14172 61.8435 1.06242 61.5541 1.10414C61.2652 1.14365 61.0049 1.29729 60.8286 1.5305L44.4744 23.2224H4.23216C2.24893 23.2224 0.635742 24.8474 0.635742 26.8452V58.2836C0.635742 60.2813 2.24893 61.9063 4.23216 61.9063H61.7752C63.7584 61.9063 65.3716 60.2813 65.3716 58.2836V26.8452C65.3716 24.8474 63.7584 23.2224 61.7752 23.2224H52.7417L66.0714 5.54205C66.4378 5.05573 66.3435 4.36218 65.8615 3.99302ZM41.639 34.2938L40.1015 34.5055L39.8913 32.9567L59.5245 6.91534L61.2721 8.25243L41.639 34.2938ZM2.82991 58.2838V26.8452C2.82991 26.0743 3.44765 25.4501 4.20994 25.4373C4.02808 25.8703 3.92714 26.3461 3.92714 26.8452V58.2836C3.92714 58.7826 4.02781 59.2584 4.20994 59.6914C3.44765 59.6789 2.82991 59.0548 2.82991 58.2838ZM63.1772 26.8452V58.2836C63.1772 59.0545 62.5594 59.6787 61.7971 59.6914C61.979 59.2584 62.0799 58.7826 62.0799 58.2836V26.8452C62.0799 26.3461 61.9793 25.8703 61.7971 25.4373C62.5597 25.4503 63.1772 26.0745 63.1772 26.8452ZM58.4835 25.4329C59.2565 25.4329 59.8855 26.0665 59.8855 26.8452V58.2836C59.8855 59.0622 59.2565 59.6958 58.4835 59.6958H7.52383C6.75084 59.6958 6.12185 59.0622 6.12185 58.2836V26.8452C6.12185 26.0665 6.75084 25.4329 7.52383 25.4329H42.808L37.8689 31.9841C37.6931 32.2179 37.616 32.5119 37.6558 32.8023L38.0757 35.8995C38.1506 36.4538 38.621 36.8553 39.1611 36.8553C39.2111 36.8553 39.2607 36.8519 39.3112 36.845L42.3864 36.422C42.6747 36.3825 42.9356 36.2289 43.112 35.9956L51.0753 25.4329H58.4835ZM62.5995 6.49175L60.8519 5.15465L61.9123 3.74793L63.6599 5.08475L62.5995 6.49175ZM30.8091 11.0645C32.9264 11.0645 34.6494 9.32896 34.6494 7.19608C34.6494 5.06319 32.9264 3.32766 30.8091 3.32766C28.6917 3.32766 26.9688 5.06319 26.9688 7.19608C26.9688 9.32896 28.692 11.0645 30.8091 11.0645ZM30.8091 5.53818C31.7168 5.53818 32.4549 6.28175 32.4549 7.19608C32.4549 8.1104 31.7168 8.85397 30.8091 8.85397C29.9014 8.85397 29.1632 8.1104 29.1632 7.19608C29.1632 6.28175 29.9017 5.53818 30.8091 5.53818ZM18.191 6.64344C18.191 7.25386 17.6998 7.74871 17.0938 7.74871C16.4878 7.74871 15.9966 7.25386 15.9966 6.64344C15.9966 6.03302 16.4878 5.53818 17.0938 5.53818C17.6998 5.53818 18.191 6.03302 18.191 6.64344ZM13.8021 18.8013C13.5215 18.8013 13.2406 18.6933 13.0264 18.4775C12.5979 18.0459 12.5979 17.3463 13.0264 16.9147L13.8965 16.0382L13.0264 15.1617C12.5979 14.7301 12.5979 14.0305 13.0264 13.5989C13.4549 13.1673 14.1494 13.1673 14.5779 13.5989L15.448 14.4753L16.3181 13.5989C16.7465 13.1673 17.4411 13.1673 17.8695 13.5989C18.298 14.0305 18.298 14.7301 17.8695 15.1617L16.9994 16.0382L17.8695 16.9147C18.298 17.3463 18.298 18.0459 17.8695 18.4775C17.6553 18.6933 17.3744 18.8013 17.0938 18.8013C16.8132 18.8013 16.5323 18.6933 16.3181 18.4775L15.448 17.601L14.5779 18.4775C14.3636 18.6933 14.0827 18.8013 13.8021 18.8013ZM39.3929 40.054L39.3995 40.0636L39.402 40.0671C39.8551 40.7236 40.3682 41.4671 41.0401 41.9862C42.8157 43.3625 45.8838 43.3047 50.1602 41.8173C50.7314 41.6206 51.357 41.9237 51.5554 42.5018C51.7529 43.0787 51.4492 43.7079 50.8759 43.9071C45.7881 45.6775 42.1324 45.6227 39.7018 43.7383C38.7602 43.0089 38.1167 42.0763 37.5993 41.3265L37.5979 41.3244L37.5931 41.3175C37.3472 40.9616 36.9928 40.4485 36.7846 40.2791C36.5545 40.5036 36.2469 41.2515 36.0735 41.6733L36.0734 41.6733L36.0714 41.6783C35.6369 42.7366 35.1439 43.9364 33.9411 43.9671C33.9255 43.9676 33.9101 43.9676 33.8945 43.9676C32.5825 43.9682 31.807 42.5233 30.9997 40.0403C30.8206 40.6259 30.554 41.1882 30.1623 41.688C28.1404 44.271 24.6597 43.9438 21.3102 43.0972C22.0511 48.5727 21.8064 50.0175 19.6564 50.7887C19.2238 50.944 18.7775 51.0159 18.326 51.0159C16.0506 51.0159 13.6334 49.1966 12.0427 47.101C10.5116 45.0837 9.35646 42.231 10.7066 40.2747C12.1503 38.1829 15.2782 39.0232 18.6453 40.0345C18.5638 39.4971 18.4771 38.9273 18.385 38.3239C18.036 36.0426 17.6177 33.3038 17.1451 30.0112C17.0584 29.4074 17.474 28.8465 18.0742 28.7592C18.6741 28.6793 19.2304 29.0905 19.317 29.6951C19.7886 32.9797 20.2058 35.7121 20.5536 37.9879C20.7048 38.9757 20.8436 39.8851 20.9689 40.7215C24.0112 41.5725 27.0426 42.1047 28.4394 40.32C29.3222 39.1922 29.1556 37.1054 29.056 35.858L29.056 35.8575L29.0559 35.8564C28.9747 34.8356 28.8737 33.5654 30.0789 33.4041C31.3012 33.2396 31.6229 34.3615 32.3986 37.0665L32.4127 37.1155L32.4158 37.1264L32.4158 37.1265C32.737 38.2455 33.3324 40.3202 33.8377 41.3236C33.9086 41.1624 33.9781 40.9931 34.0369 40.8502L34.0434 40.8342C34.524 39.6637 35.1225 38.2064 36.5615 38.0473C37.9102 37.9057 38.6943 39.0418 39.3929 40.054ZM13.7862 45.7592C15.4151 47.9057 17.6218 49.1734 18.9204 48.7075C19.6849 48.4334 19.6613 47.0438 19.0027 42.4501C18.8159 42.3937 18.631 42.3382 18.4478 42.2832C16.7655 41.7759 14.7929 41.1818 13.5698 41.1818C13.0621 41.1818 12.6838 41.2838 12.5091 41.5374C11.9769 42.3081 12.5143 44.0837 13.7862 45.7592ZM8.31603 53.0645H10.5105C11.1164 53.0645 11.6077 53.5594 11.6077 54.1698C11.6077 54.7802 11.1164 55.275 10.5105 55.275H8.31603C7.71009 55.275 7.21881 54.7802 7.21881 54.1698C7.21881 53.5594 7.71009 53.0645 8.31603 53.0645ZM35.0482 53.0645H30.9588C30.3529 53.0645 29.8616 53.5594 29.8616 54.1698C29.8616 54.7802 30.3529 55.275 30.9588 55.275H35.0482C35.6541 55.275 36.1454 54.7802 36.1454 54.1698C36.1454 53.5594 35.6538 53.0645 35.0482 53.0645ZM14.6001 53.0645H18.6894C19.2954 53.0645 19.7866 53.5594 19.7866 54.1698C19.7866 54.7802 19.2954 55.275 18.6894 55.275H14.6001C13.9941 55.275 13.5029 54.7802 13.5029 54.1698C13.5029 53.5594 13.9941 53.0645 14.6001 53.0645ZM43.2275 53.0645H39.1381C38.5322 53.0645 38.0409 53.5594 38.0409 54.1698C38.0409 54.7802 38.5322 55.275 39.1381 55.275H43.2275C43.8334 55.275 44.3247 54.7802 44.3247 54.1698C44.3247 53.5594 43.8334 53.0645 43.2275 53.0645ZM46.2201 54.1698C46.2201 53.5594 46.7114 53.0645 47.3173 53.0645H51.4067C52.0126 53.0645 52.5039 53.5594 52.5039 54.1698C52.5039 54.7802 52.0126 55.275 51.4067 55.275H47.3173C46.7114 55.275 46.2201 54.7802 46.2201 54.1698ZM26.8687 53.0645H22.7793C22.1734 53.0645 21.6821 53.5594 21.6821 54.1698C21.6821 54.7802 22.1734 55.275 22.7793 55.275H26.8687C27.4746 55.275 27.9659 54.7802 27.9659 54.1698C27.9659 53.5594 27.4746 53.0645 26.8687 53.0645ZM57.691 55.275H55.4966C54.8907 55.275 54.3994 54.7802 54.3994 54.1698C54.3994 53.5594 54.8907 53.0645 55.4966 53.0645H57.691C58.297 53.0645 58.7883 53.5594 58.7883 54.1698C58.7883 54.7802 58.297 55.275 57.691 55.275Z" fill="#343F4D"/>
</svg>
