<svg width="105" height="29" viewBox="0 0 105 29" fill="none" xmlns="http://www.w3.org/2000/svg">
<path d="M0 14.5C0 6.49187 6.49187 0 14.5 0H90.5C98.5081 0 105 6.49187 105 14.5C105 22.5081 98.5081 29 90.5 29H14.5C6.49187 29 0 22.5081 0 14.5Z" fill="#343F4D"/>
<path d="M25.8975 17.68H27.4095C28.1935 17.68 28.8375 17.432 29.3415 16.936C29.8535 16.432 30.1095 15.708 30.1095 14.764C30.1095 13.812 29.8575 13.084 29.3535 12.58C28.8495 12.068 28.2055 11.812 27.4215 11.812H25.8975V17.68ZM27.4575 19H24.4575V10.492H27.4695C28.6695 10.492 29.6575 10.872 30.4335 11.632C31.2175 12.392 31.6095 13.436 31.6095 14.764C31.6095 16.084 31.2175 17.12 30.4335 17.872C29.6495 18.624 28.6575 19 27.4575 19ZM34.5817 19H33.1177V10.492H34.5817V19ZM42.2136 12.484L40.9176 12.892C40.8616 12.564 40.6976 12.264 40.4256 11.992C40.1536 11.72 39.7616 11.584 39.2496 11.584C38.8256 11.584 38.4736 11.704 38.1936 11.944C37.9216 12.184 37.7856 12.472 37.7856 12.808C37.7856 13.392 38.1176 13.756 38.7816 13.9L40.0056 14.152C40.7416 14.296 41.3096 14.588 41.7096 15.028C42.1096 15.468 42.3096 15.992 42.3096 16.6C42.3096 17.304 42.0376 17.912 41.4936 18.424C40.9576 18.928 40.2256 19.18 39.2976 19.18C38.2976 19.18 37.5176 18.92 36.9576 18.4C36.3976 17.872 36.0816 17.26 36.0096 16.564L37.3536 16.18C37.4016 16.66 37.5936 17.064 37.9296 17.392C38.2656 17.72 38.7216 17.884 39.2976 17.884C39.7936 17.884 40.1736 17.776 40.4376 17.56C40.7096 17.336 40.8456 17.052 40.8456 16.708C40.8456 16.428 40.7456 16.188 40.5456 15.988C40.3456 15.78 40.0656 15.636 39.7056 15.556L38.5056 15.304C37.8416 15.168 37.3136 14.892 36.9216 14.476C36.5376 14.06 36.3456 13.54 36.3456 12.916C36.3456 12.204 36.6296 11.592 37.1976 11.08C37.7656 10.568 38.4456 10.312 39.2376 10.312C40.1416 10.312 40.8336 10.532 41.3136 10.972C41.7936 11.404 42.0936 11.908 42.2136 12.484ZM49.508 19L48.704 16.864H45.104L44.312 19H42.788L46.1 10.492H47.768L51.08 19H49.508ZM46.904 12.052L45.608 15.532H48.2L46.904 12.052ZM59.4039 19H58.2399L58.1319 17.92C57.9239 18.272 57.5959 18.572 57.1479 18.82C56.6999 19.06 56.1599 19.18 55.5279 19.18C54.3679 19.18 53.3799 18.78 52.5639 17.98C51.7479 17.172 51.3399 16.092 51.3399 14.74C51.3399 13.844 51.5439 13.052 51.9519 12.364C52.3679 11.676 52.8959 11.164 53.5359 10.828C54.1759 10.484 54.8719 10.312 55.6239 10.312C56.6079 10.312 57.4319 10.556 58.0959 11.044C58.7679 11.532 59.2239 12.152 59.4639 12.904L58.1079 13.42C57.9559 12.908 57.6639 12.484 57.2319 12.148C56.7999 11.812 56.2639 11.644 55.6239 11.644C54.8639 11.644 54.2039 11.912 53.6439 12.448C53.0839 12.984 52.8039 13.748 52.8039 14.74C52.8039 15.724 53.0759 16.492 53.6199 17.044C54.1639 17.588 54.8279 17.86 55.6119 17.86C56.3799 17.86 56.9639 17.66 57.3639 17.26C57.7719 16.852 57.9999 16.416 58.0479 15.952H55.2399V14.692H59.4039V19ZM65.4449 19L63.6569 15.64H62.6009V19H61.1489V10.492H64.4129C65.2129 10.492 65.8569 10.74 66.3449 11.236C66.8329 11.724 67.0769 12.336 67.0769 13.072C67.0769 13.68 66.9049 14.2 66.5609 14.632C66.2169 15.064 65.7489 15.352 65.1569 15.496L67.0769 19H65.4449ZM62.6009 14.368H64.1489C64.5889 14.368 64.9409 14.252 65.2049 14.02C65.4769 13.78 65.6129 13.464 65.6129 13.072C65.6129 12.672 65.4769 12.356 65.2049 12.124C64.9409 11.884 64.5889 11.764 64.1489 11.764H62.6009V14.368ZM73.8698 19H68.6138V10.492H73.8698V11.836H70.0538V14.092H73.5098V15.4H70.0538V17.656H73.8698V19ZM80.8541 19H75.5981V10.492H80.8541V11.836H77.0381V14.092H80.4941V15.4H77.0381V17.656H80.8541V19Z" fill="white"/>
</svg>
