<svg width="44" height="38" viewBox="0 0 44 38" fill="none" xmlns="http://www.w3.org/2000/svg">
<path d="M22.2822 13.4122C19.8035 13.4122 17.7939 15.3922 17.7939 17.8348C17.7939 20.2773 19.8034 22.2574 22.2822 22.2574C24.7609 22.2574 26.7704 20.2774 26.7704 17.8348C26.7704 15.3922 24.761 13.4122 22.2822 13.4122ZM22.2822 20.1513C20.9838 20.1513 19.9312 19.1141 19.9312 17.8347C19.9312 16.5553 20.9838 15.5181 22.2822 15.5181C23.5806 15.5181 24.6332 16.5553 24.6332 17.8347C24.6332 19.1141 23.5806 20.1513 22.2822 20.1513Z" fill="#4D7CFE"/>
<path d="M40.1818 3.30352L11.0083 0.0393296C9.87609 -0.11929 8.72892 0.206414 7.85594 0.93441C6.98306 1.60134 6.42353 2.58994 6.30643 3.67216L5.77217 7.98944H4.11569C1.76469 7.98944 0.00144395 10.0427 0.00144395 12.3593V33.893C-0.0577708 36.102 1.71161 37.9403 3.95359 37.9986C4.00759 38 4.06169 38.0003 4.11569 37.9996H33.4494C35.8004 37.9996 37.9376 36.2096 37.9376 33.893V33.0506C38.6665 32.9118 39.358 32.6249 39.968 32.2082C40.8337 31.49 41.388 30.4729 41.5175 29.3652L43.9754 7.98944C44.226 5.66749 42.5349 3.57874 40.1818 3.30352ZM35.8004 33.893C35.8004 35.0513 34.6249 35.8936 33.4494 35.8936H4.11569C3.05382 35.9244 2.16774 35.1011 2.13655 34.0547C2.13491 34.0008 2.13563 33.9469 2.1387 33.893V29.9969L10.4206 23.9949C11.4155 23.2422 12.8168 23.3091 13.7333 24.1528L19.5573 29.2071C20.4418 29.9389 21.5551 30.3479 22.7098 30.3654C23.6127 30.3763 24.5007 30.1394 25.2746 29.681L35.8005 23.6789V33.893H35.8004ZM35.8004 21.2044L24.1524 27.8909C23.1522 28.4748 21.8861 28.3691 20.9999 27.6277L15.1225 22.5206C13.438 21.0944 10.9759 21.0069 9.19159 22.31L2.1387 27.3644V12.3593C2.1387 11.201 2.94019 10.0954 4.11569 10.0954H33.4494C34.7053 10.1467 35.7195 11.1234 35.8004 12.3593V21.2044ZM41.8402 7.70516C41.8395 7.71211 41.8389 7.71916 41.838 7.72612L39.3268 29.1018C39.3311 29.6561 39.0746 30.181 38.6322 30.5234C38.4184 30.734 37.9375 30.8393 37.9375 30.9446V12.3593C37.8532 9.9608 35.8842 8.04376 33.4493 7.98944H7.90932L8.3902 3.88277C8.49452 3.35099 8.77668 2.86908 9.19169 2.51385C9.6603 2.1946 10.2269 2.04575 10.7947 2.09261L39.9147 5.40951C41.0896 5.51946 41.9518 6.54726 41.8402 7.70516Z" fill="#4D7CFE"/>
</svg>
