<svg width="93" height="65" viewBox="0 0 93 65" fill="none" xmlns="http://www.w3.org/2000/svg">
<circle cx="69" cy="24" r="24" fill="#ECECEC"/>
<path d="M72.8 13H5.2C2.32812 13 0 15.3281 0 18.2V59.8C0 62.6719 2.32812 65 5.2 65H72.8C75.6719 65 78 62.6719 78 59.8V18.2C78 15.3281 75.6719 13 72.8 13ZM5.2 15.6H72.8C74.2359 15.6 75.4 16.7641 75.4 18.2V26H47.9765C45.0008 25.9974 42.1198 24.9544 39.832 23.0516C37.0791 20.7604 33.6116 19.504 30.03 19.5H2.6V18.2C2.6 16.7641 3.76406 15.6 5.2 15.6ZM72.8 62.4H5.2C3.76406 62.4 2.6 61.2359 2.6 59.8V22.1H30.03C33.0056 22.1026 35.8867 23.1456 38.1745 25.0484C40.9274 27.3396 44.3948 28.596 47.9765 28.6H75.4V59.8C75.4 61.2359 74.2359 62.4 72.8 62.4Z" fill="#343F4D"/>
<path d="M27.8343 42.1642C30.8763 38.4563 30.5183 33.0239 27.016 29.7472C23.5137 26.4705 18.0695 26.4746 14.5721 29.7564C11.0747 33.0382 10.7247 38.4712 13.7722 42.1746C9.26485 44.6816 6.47849 49.4424 6.5 54.6C6.5 56.7539 8.24609 58.5 10.4 58.5H31.2C33.3495 58.4893 35.0893 56.7495 35.1 54.6C35.1202 49.4418 32.3378 44.6795 27.8343 42.1642ZM20.8 29.9C24.3899 29.9 27.3 32.8102 27.3 36.4C27.3 39.9899 24.3899 42.9 20.8 42.9C17.2101 42.9 14.3 39.9899 14.3 36.4C14.3043 32.8119 17.2119 29.9043 20.8 29.9ZM32.1022 55.5256C31.8651 55.7682 31.5392 55.9034 31.2 55.9H10.4C9.68203 55.9 9.1 55.318 9.1 54.6C9.08411 50.057 11.7232 45.9234 15.8509 44.0258C18.8511 45.9871 22.7266 45.9912 25.7309 44.0362C29.8646 45.9243 32.5118 50.0556 32.5 54.6C32.5011 54.9503 32.3571 55.2854 32.1022 55.5256Z" fill="#343F4D"/>
<path d="M67.6 35.1H41.6C40.8821 35.1 40.3 35.682 40.3 36.4C40.3 37.118 40.8821 37.7 41.6 37.7H67.6C68.318 37.7 68.9 37.118 68.9 36.4C68.9 35.682 68.318 35.1 67.6 35.1Z" fill="#343F4D"/>
<path d="M41.6 44.2H54.6001C55.318 44.2 55.9001 43.618 55.9001 42.9C55.9001 42.182 55.318 41.6 54.6001 41.6H41.6C40.8821 41.6 40.3 42.182 40.3 42.9C40.3 43.618 40.8821 44.2 41.6 44.2Z" fill="#343F4D"/>
<path d="M67.6 48.1H41.6C40.8821 48.1 40.3 48.682 40.3 49.4C40.3 50.118 40.8821 50.7 41.6 50.7H67.6C68.318 50.7 68.9 50.118 68.9 49.4C68.9 48.682 68.318 48.1 67.6 48.1Z" fill="#343F4D"/>
<path d="M54.6001 54.6H41.6C40.8821 54.6 40.3 55.182 40.3 55.9C40.3 56.618 40.8821 57.2 41.6 57.2H54.6001C55.318 57.2 55.9001 56.618 55.9001 55.9C55.9001 55.182 55.318 54.6 54.6001 54.6Z" fill="#343F4D"/>
<path d="M48.1001 22.1H53.3001C54.018 22.1 54.6001 21.518 54.6001 20.8C54.6001 20.082 54.018 19.5 53.3001 19.5H48.1001C47.3821 19.5 46.8 20.082 46.8 20.8C46.8 21.518 47.3821 22.1 48.1001 22.1Z" fill="#343F4D"/>
<path d="M58.5 22.1H70.1999C70.9179 22.1 71.4999 21.518 71.4999 20.8C71.4999 20.082 70.9179 19.5 70.1999 19.5H58.5C57.782 19.5 57.2 20.082 57.2 20.8C57.2 21.518 57.782 22.1 58.5 22.1Z" fill="#343F4D"/>
</svg>
