<svg width="71" height="66" viewBox="0 0 71 66" fill="none" xmlns="http://www.w3.org/2000/svg">
<path d="M56.5151 46.7418C56.2842 46.5107 55.9638 46.3779 55.6372 46.3779C55.3105 46.3779 54.9901 46.5107 54.7591 46.7418C54.5281 46.9729 54.3953 47.2919 54.3953 47.6198C54.3953 47.9465 54.528 48.2669 54.7591 48.4977C54.9901 48.7287 55.3105 48.8617 55.6372 48.8617C55.9638 48.8617 56.2842 48.7289 56.5151 48.4977C56.7462 48.2669 56.8791 47.9465 56.8791 47.6198C56.8791 47.2932 56.7462 46.9728 56.5151 46.7418Z" fill="#343F4D"/>
<circle cx="50.7073" cy="19.3171" r="19.3171" fill="#ECECEC"/>
<path d="M62.3434 63.5161H56.8791V51.9664C56.8791 51.2807 56.323 50.7245 55.6372 50.7245C54.9514 50.7245 54.3953 51.2807 54.3953 51.9664V63.5161H15.1512V51.8422C15.1512 51.1565 14.5951 50.6003 13.9093 50.6003C13.2235 50.6003 12.6674 51.1565 12.6674 51.8422V63.5161H9.19007V30.8544L31.7927 13.2086L54.3953 30.8544V42.6522C54.3953 43.338 54.9514 43.8941 55.6372 43.8941C56.323 43.8941 56.8791 43.338 56.8791 42.6522V32.7935L57.0962 32.963C57.3218 33.1392 57.5914 33.226 57.8599 33.226C58.1794 33.226 58.4975 33.1032 58.7385 32.8623L63.2179 28.3827C63.4694 28.1311 63.601 27.7836 63.5793 27.4285C63.5574 27.0733 63.3844 26.7445 63.1039 26.5256L55.6372 20.6964V8.25151C55.6372 7.56561 55.0811 7.00961 54.3953 7.00961H47.1975C46.5117 7.00961 45.9556 7.56561 45.9556 8.25151V13.1379L32.5568 2.67761C32.1079 2.32703 31.4775 2.32703 31.0284 2.67761L0.481361 26.5256C0.200815 26.7445 0.0278186 27.0733 0.00596113 27.4285C-0.0157721 27.7836 0.115869 28.131 0.367354 28.3827L4.84677 32.8623C5.29013 33.3055 5.99478 33.349 6.48918 32.963L6.70627 32.7935V63.5161H1.2419C0.556123 63.5161 0 64.0722 0 64.758C0 65.4438 0.556123 65.9999 1.2419 65.9999H62.3434C63.0292 65.9999 63.5854 65.4438 63.5854 64.758C63.5854 64.0722 63.0292 63.5161 62.3434 63.5161ZM48.4394 9.49342H53.1534V18.7573L48.4394 15.077V9.49342ZM5.8265 30.3293L3.11668 27.6193L31.7927 5.23196L60.4687 27.6193L57.7588 30.3293L32.5568 10.6541C32.3323 10.4787 32.0625 10.3911 31.7927 10.3911C31.5228 10.3911 31.2529 10.4787 31.0285 10.6541L5.8265 30.3293Z" fill="#343F4D"/>
<path d="M43.7149 29.4881H19.8704C19.1847 29.4881 18.6285 30.0441 18.6285 30.73V54.5745C18.6285 55.2603 19.1847 55.8164 19.8704 55.8164H43.7149C44.4007 55.8164 44.9569 55.2603 44.9569 54.5745V30.73C44.9569 30.0441 44.4007 29.4881 43.7149 29.4881ZM30.5508 53.3326H21.1123V43.8941H30.5508V53.3326ZM30.5508 41.4103H21.1123V31.9719H30.5508V41.4103ZM42.473 53.3326H33.0346V43.8941H42.473V53.3326ZM42.473 41.4103H33.0346V31.9719H42.473V41.4103Z" fill="#343F4D"/>
<path d="M13.9093 45.6956C13.2235 45.6956 12.6674 46.2516 12.6674 46.9375V46.9575C12.6674 47.6433 13.2235 48.1994 13.9093 48.1994C14.595 48.1994 15.1512 47.6433 15.1512 46.9575V46.9375C15.1512 46.2518 14.595 45.6956 13.9093 45.6956Z" fill="#343F4D"/>
</svg>
