<svg width="73" height="64" viewBox="0 0 73 64" fill="none" xmlns="http://www.w3.org/2000/svg">
<circle cx="49" cy="24" r="24" fill="#ECECEC"/>
<path fill-rule="evenodd" clip-rule="evenodd" d="M48.6901 0.690247C47.9999 0.690247 47.4401 1.25 47.4401 1.94025C47.4401 2.6305 47.9999 3.19025 48.6901 3.19025C55.7535 3.19025 61.5 8.95049 61.5 16.0309C61.5 16.7211 62.0597 17.2809 62.75 17.2809C63.4403 17.2809 64 16.7211 64 16.0309C64 7.57199 57.132 0.690247 48.6901 0.690247ZM8.1495 15.7077C13.4055 10.4402 20.394 7.53937 27.8275 7.53937C35.261 7.53937 42.2494 10.4402 47.5055 15.7077C52.7607 20.9744 55.655 27.9766 55.655 35.4245C55.655 42.8724 52.7607 49.8745 47.5055 55.1412C42.2495 60.4087 35.2611 63.3096 27.8276 63.3096C23.5509 63.3096 19.4566 62.3662 15.6501 60.5049L10.1944 62.3637C9.79412 62.5 9.35275 62.425 9.02013 62.1644C8.68762 61.9037 8.50912 61.4929 8.54587 61.072L8.99225 55.9512C3.26975 50.6749 0 43.2302 0 35.4245C0 27.9766 2.89425 20.9745 8.1495 15.7077ZM16.3121 58.0406C19.897 59.8781 23.7714 60.8097 27.8275 60.8097C41.7931 60.8097 53.1549 49.4219 53.1549 35.4245C53.1549 21.4271 41.7931 10.0394 27.8275 10.0394C13.8619 10.0394 2.5 21.4271 2.5 35.4245C2.5 42.7254 5.641 49.6786 11.1176 54.5015C11.4156 54.764 11.5712 55.1525 11.5367 55.5481L11.2028 59.3789L15.3386 57.9697C15.4698 57.9251 15.606 57.903 15.7419 57.903C15.9384 57.903 16.1339 57.9494 16.3121 58.0406ZM27.9734 15.8741H27.8048C24.6241 15.8741 22.0364 18.4619 22.0364 21.6425C22.0364 24.8231 24.6241 27.4109 27.8048 27.4109H27.9734C31.1541 27.4109 33.7418 24.8231 33.7418 21.6425C33.7418 18.4619 31.1541 15.8741 27.9734 15.8741ZM27.9734 24.911H27.8048C26.0025 24.911 24.5364 23.4449 24.5364 21.6426C24.5364 19.8404 26.0025 18.3742 27.8048 18.3742H27.9734C29.7756 18.3742 31.2418 19.8404 31.2418 21.6426C31.2418 23.4449 29.7756 24.911 27.9734 24.911ZM32.4919 29.6475H23.2864C22.5961 29.6475 22.0364 30.2072 22.0364 30.8975V53.725C22.0364 54.4152 22.5961 54.975 23.2864 54.975H32.4919C33.1821 54.975 33.7419 54.4152 33.7419 53.725V30.8975C33.7419 30.2071 33.1821 29.6475 32.4919 29.6475ZM31.2419 52.475H24.5364V32.1475H31.2419V52.475ZM48.7552 8.26498C48.7552 7.57473 49.315 7.01498 50.0052 7.01498C54.2422 7.01498 57.6891 10.4682 57.6891 14.7129C57.6891 15.4031 57.1294 15.9629 56.4391 15.9629C55.7489 15.9629 55.1891 15.4031 55.1891 14.7129C55.1891 11.8467 52.8636 9.51498 50.0052 9.51498C49.315 9.51498 48.7552 8.95523 48.7552 8.26498Z" fill="#343F4D"/>
</svg>
