<svg width="88" height="30" viewBox="0 0 88 30" fill="none" xmlns="http://www.w3.org/2000/svg">
<path fill-rule="evenodd" clip-rule="evenodd" d="M13.0878 0.374824C19.6516 0.350538 24.5454 4.81622 24.5714 11.0176C24.5959 17.2199 19.7385 21.7577 13.1745 21.7821L9.10936 21.7969L8.54733 21.8137L8.54775 21.8431C8.5524 22.3371 8.58331 28.9012 8.58778 29.8534L8.58829 29.9608C8.58831 29.9657 8.58832 29.9682 8.58832 29.9682L0.000160217 29.9998V14.7081H6.01183C6.01183 16.1692 7.18853 16.8814 8.52985 16.8814C9.76136 16.8814 10.9387 16.2525 10.9387 15.1351C10.9387 13.8522 9.277 13.4802 7.24333 13.0075C4.15767 12.2735 0.217205 11.3675 0.217205 6.71148C0.217205 2.87363 3.02412 0.602041 7.64269 0.395176L8.85024 0.390836L13.0878 0.374824ZM43.6904 19.8573C45.7508 19.8573 47.2236 21.2905 47.2236 23.3095C47.2236 25.3281 45.7508 26.7685 43.6904 26.7685C43.0808 26.7685 42.523 26.614 42.0476 26.338V28.8891H39.7523V20.0695H41.3311L41.6217 20.584C42.1763 20.1235 42.8893 19.8573 43.6904 19.8573ZM68.1309 19.8573C70.3033 19.8573 71.8073 21.3472 71.8073 23.2481C71.8073 23.4435 71.7897 23.6388 71.7593 23.8391H66.7553C66.9071 24.582 67.3981 24.9667 68.1309 24.9667C68.6731 24.9667 69.1267 24.738 69.3494 24.3592H71.6594C71.1848 25.8378 69.8221 26.7618 68.1309 26.7618C66.0283 26.7618 64.4706 25.2836 64.4706 23.3043C64.4706 21.318 66.0159 19.8573 68.1309 19.8573ZM60.2674 19.8672C62.161 19.8672 63.5814 21.0151 63.8353 22.739H61.574C61.3786 22.2102 60.8649 21.8671 60.2596 21.8671C59.4437 21.8671 58.8634 22.4634 58.8634 23.3075C58.8634 24.152 59.4515 24.7614 60.2596 24.7614C60.8829 24.7614 61.3876 24.3946 61.5791 23.8164H63.8595C63.5978 25.5755 62.1571 26.7612 60.2596 26.7612C58.0985 26.7612 56.5384 25.3055 56.5384 23.3004C56.5384 21.2952 58.0911 19.8672 60.2674 19.8672ZM51.4359 19.8674C52.2292 19.8674 52.9382 20.1224 53.4948 20.5638L53.7323 20.0628H55.4624V26.5424H53.6683L53.4694 26.0838C52.9175 26.5139 52.2186 26.7614 51.4359 26.7614C49.375 26.7614 47.9019 25.3158 47.9019 23.3024C47.9019 21.2958 49.375 19.8674 51.4359 19.8674ZM35.0281 17.9512C37.1225 17.9512 38.3234 18.9851 38.3234 20.694H35.9099C35.9099 20.1626 35.4981 19.9136 34.9988 19.9136C34.5702 19.9136 34.1587 20.0921 34.1587 20.4843C34.1587 20.9613 34.8171 21.1192 35.6396 21.3176C36.9255 21.6367 38.6065 22.0496 38.6065 23.9681C38.6065 25.8022 37.1404 26.7543 35.1116 26.7543C32.9735 26.7543 31.5916 25.668 31.5916 23.8368H34.0745C34.0745 24.4372 34.5562 24.729 35.1049 24.729C35.6088 24.729 36.0901 24.471 36.0901 24.0123C36.0901 23.4855 35.4103 23.3325 34.5784 23.139C33.3163 22.8371 31.7043 22.4651 31.7043 20.553C31.7043 18.8988 32.968 17.9512 35.0281 17.9512ZM43.3799 21.8264C42.5102 21.8264 41.8713 22.4579 41.8713 23.3091C41.8713 24.1608 42.5102 24.7919 43.3799 24.7919C44.2438 24.7919 44.8881 24.1608 44.8881 23.3091C44.8881 22.4579 44.2489 21.8264 43.3799 21.8264ZM51.7463 21.8347C50.8715 21.8347 50.2377 22.4666 50.2377 23.3077C50.2377 24.1537 50.8766 24.7852 51.7463 24.7852C52.6153 24.7852 53.2545 24.1537 53.2545 23.3077C53.2545 22.4666 52.6153 21.8347 51.7463 21.8347ZM68.1309 21.606C67.4542 21.606 66.9839 21.9592 66.7963 22.6031H69.5202C69.317 21.9555 68.8314 21.606 68.1309 21.606ZM82.6772 5.66952L84.107 9.23914L85.4401 5.66952H87.9339L85.1094 11.8608C84.201 13.8441 83.366 14.5604 81.6257 14.5604H80.8309V12.6426H81.4693C82.3574 12.6426 82.6254 12.4203 82.9397 11.614L80.155 5.66952H82.6772ZM57.2817 5.45712C59.3421 5.45712 60.8149 6.89074 60.8149 8.90937C60.8149 10.9284 59.3421 12.3684 57.2817 12.3684C56.6721 12.3684 56.1143 12.2142 55.6389 11.9379V14.489H53.3436V5.66937H54.9224L55.213 6.18424C55.7676 5.72374 56.4806 5.45712 57.2817 5.45712ZM65.1487 5.45757C67.3203 5.45757 68.825 6.94744 68.825 8.84794C68.8246 9.04332 68.8067 9.23869 68.7766 9.43894H63.7727C63.9244 10.1822 64.4154 10.5666 65.1487 10.5666C65.6904 10.5666 66.1436 10.3382 66.3667 9.95907H68.6768C68.2025 11.4377 66.839 12.3617 65.1487 12.3617C63.0453 12.3617 61.488 10.8838 61.488 8.90457C61.488 6.91782 63.0332 5.45757 65.1487 5.45757ZM48.4926 5.45749C50.683 5.45749 52.2711 6.90087 52.2711 8.90937C52.2711 10.9111 50.683 12.3616 48.4926 12.3616C46.2956 12.3616 44.7145 10.9111 44.7145 8.90937C44.7145 6.90087 46.2956 5.45749 48.4926 5.45749ZM35.7356 3.75C37.5929 3.75 38.9724 5.02313 38.9724 6.7845C38.9724 8.54588 37.5929 9.82913 35.7356 9.82913H34.4283V12.1493H32.0168V3.75H35.7356ZM44.3404 5.63873V7.68098H43.4391C42.6173 7.68098 42.2733 8.02748 42.2733 8.85398V12.1491H39.9519V5.66948H41.5073L41.8692 6.38873C42.3447 5.86035 42.9235 5.63873 43.7257 5.63873H44.3404ZM74.2691 5.63873V7.68098H73.3678C72.546 7.68098 72.2017 8.02748 72.2017 8.85398V12.1491H69.8806V5.66948H71.4353L71.798 6.38873C72.273 5.86035 72.8518 5.63873 73.6541 5.63873H74.2691ZM78.074 3.77517V5.66967H79.7666V7.38867H78.1325V9.45042C78.1325 9.91429 78.4238 10.1944 78.9137 10.1944H79.8041V12.1493H78.2073C76.7171 12.1493 75.8111 11.2733 75.8111 9.83329V7.38867H74.5778V6.86667L77.5973 3.77517H78.074ZM56.9712 7.42662C56.1015 7.42662 55.4626 8.05774 55.4626 8.90937C55.4626 9.76062 56.1015 10.3921 56.9712 10.3921C57.8351 10.3921 58.4794 9.76062 58.4794 8.90937C58.4794 8.05774 57.8402 7.42662 56.9712 7.42662ZM48.4926 7.46262C47.6466 7.46262 47.0394 8.05287 47.0394 8.90937C47.0394 9.76624 47.6466 10.3565 48.4926 10.3565C49.3389 10.3565 49.9462 9.76624 49.9462 8.90974C49.9462 8.05812 49.3389 7.46262 48.4926 7.46262ZM65.1483 7.20619C64.4716 7.20619 64.0012 7.55944 63.8133 8.20294H66.5379C66.334 7.55532 65.8488 7.20619 65.1483 7.20619ZM35.4474 5.7705H34.4283V7.809H35.4474C36.0808 7.809 36.4981 7.38675 36.4981 6.78975C36.4981 6.19238 36.0808 5.7705 35.4474 5.7705Z" fill="#F93A73"/>
</svg>
