<svg width="176" height="61" viewBox="0 0 176 61" fill="none" xmlns="http://www.w3.org/2000/svg">
<path fill-rule="evenodd" clip-rule="evenodd" d="M26.1756 0.762133C39.3031 0.712751 49.0909 9.79297 49.1428 22.4025C49.1918 35.0137 39.477 44.2406 26.349 44.2902L18.2187 44.3204L17.0946 44.3545L17.0955 44.4143C17.1048 45.4188 17.1666 58.7658 17.1756 60.7018L17.1766 60.9202C17.1766 60.9302 17.1766 60.9353 17.1766 60.9353L0.000305176 60.9996V29.9065H12.0236C12.0236 32.8774 14.3771 34.3254 17.0597 34.3254C19.5227 34.3254 21.8774 33.0467 21.8774 30.7747C21.8774 28.166 18.554 27.4097 14.4867 26.4487C8.31533 24.9561 0.434395 23.1139 0.434395 13.6467C0.434395 5.84304 6.04822 1.22414 15.2854 0.803515L17.7005 0.794691L26.1756 0.762133ZM87.3807 40.3764C91.5017 40.3764 94.4471 43.2907 94.4471 47.396C94.4471 51.5005 91.5017 54.4293 87.3807 54.4293C86.1615 54.4293 85.0461 54.1152 84.0952 53.554V58.7412H79.5047V40.808H82.6623L83.2434 41.8542C84.3526 40.9178 85.7785 40.3764 87.3807 40.3764ZM136.262 40.3766C140.607 40.3766 143.615 43.406 143.615 47.2711C143.615 47.6684 143.579 48.0656 143.519 48.4728H133.511C133.814 49.9833 134.796 50.7657 136.262 50.7657C137.346 50.7657 138.253 50.3005 138.699 49.5304H143.319C142.37 52.5369 139.644 54.4157 136.262 54.4157C132.057 54.4157 128.941 51.41 128.941 47.3855C128.941 43.3465 132.032 40.3766 136.262 40.3766ZM120.535 40.3967C124.322 40.3967 127.163 42.7307 127.671 46.2359H123.148C122.757 45.1608 121.73 44.4631 120.519 44.4631C118.887 44.4631 117.727 45.6755 117.727 47.3919C117.727 49.109 118.903 50.3481 120.519 50.3481C121.766 50.3481 122.775 49.6024 123.158 48.4266H127.719C127.196 52.0035 124.314 54.4145 120.519 54.4145C116.197 54.4145 113.077 51.4545 113.077 47.3774C113.077 43.3003 116.182 40.3967 120.535 40.3967ZM102.872 40.3971C104.458 40.3971 105.876 40.9156 106.99 41.8131L107.465 40.7944H110.925V53.9696H107.337L106.939 53.0371C105.835 53.9117 104.437 54.4149 102.872 54.4149C98.75 54.4149 95.8038 51.4755 95.8038 47.3816C95.8038 43.3015 98.75 40.3971 102.872 40.3971ZM70.0562 36.5008C74.245 36.5008 76.6467 38.603 76.6467 42.0777H71.8199C71.8199 40.9973 70.9961 40.491 69.9977 40.491C69.1404 40.491 68.3175 40.8539 68.3175 41.6515C68.3175 42.6214 69.6342 42.9424 71.2793 43.3458C73.8511 43.9947 77.2131 44.8342 77.2131 48.7351C77.2131 52.4645 74.2809 54.4005 70.2231 54.4005C65.9469 54.4005 63.1832 52.1915 63.1832 48.4682H68.149C68.149 49.689 69.1123 50.2822 70.2099 50.2822C71.2177 50.2822 72.1802 49.7576 72.1802 48.8251C72.1802 47.7538 70.8206 47.4427 69.1568 47.0492C66.6326 46.4354 63.4087 45.679 63.4087 41.791C63.4087 38.4276 65.936 36.5008 70.0562 36.5008ZM86.7598 44.3803C85.0203 44.3803 83.7426 45.6644 83.7426 47.3952C83.7426 49.1269 85.0203 50.4102 86.7598 50.4102C88.4876 50.4102 89.7762 49.1269 89.7762 47.3952C89.7762 45.6644 88.4977 44.3803 86.7598 44.3803ZM103.493 44.3972C101.743 44.3972 100.475 45.682 100.475 47.3923C100.475 49.1125 101.753 50.3965 103.493 50.3965C105.231 50.3965 106.509 49.1125 106.509 47.3923C106.509 45.682 105.231 44.3972 103.493 44.3972ZM136.262 43.9321C134.908 43.9321 133.968 44.6504 133.593 45.9596H139.04C138.634 44.6428 137.663 43.9321 136.262 43.9321ZM165.354 11.528L168.214 18.7862L170.88 11.528H175.868L170.219 24.1169C168.402 28.1497 166.732 29.6061 163.251 29.6061H161.662V25.7067H162.939C164.715 25.7067 165.251 25.2545 165.879 23.6152L160.31 11.528H165.354ZM114.563 11.0961C118.684 11.0961 121.63 14.0112 121.63 18.1157C121.63 22.221 118.684 25.149 114.563 25.149C113.344 25.149 112.229 24.8356 111.278 24.2737V29.4609H106.687V11.5277H109.845L110.426 12.5746C111.535 11.6383 112.961 11.0961 114.563 11.0961ZM130.297 11.097C134.641 11.097 137.65 14.1265 137.65 17.9908C137.649 18.3881 137.613 18.7853 137.553 19.1925H127.545C127.849 20.7038 128.831 21.4853 130.297 21.4853C131.381 21.4853 132.287 21.021 132.733 20.2501H137.354C136.405 23.2566 133.678 25.1354 130.297 25.1354C126.091 25.1354 122.976 22.1304 122.976 18.1059C122.976 14.0662 126.066 11.097 130.297 11.097ZM96.9852 11.0969C101.366 11.0969 104.542 14.0318 104.542 18.1157C104.542 22.1859 101.366 25.1353 96.9852 25.1353C92.5912 25.1353 89.429 22.1859 89.429 18.1157C89.429 14.0318 92.5912 11.0969 96.9852 11.0969ZM71.4713 7.625C75.1858 7.625 77.9448 10.2137 77.9448 13.7951C77.9448 17.3766 75.1858 19.9859 71.4713 19.9859H68.8566V24.7035H64.0336V7.625H71.4713ZM88.6808 11.4654V15.618H86.8781C85.2346 15.618 84.5466 16.3225 84.5466 18.0031V24.7032H79.9038V11.5279H83.0146L83.7385 12.9904C84.6894 11.916 85.8469 11.4654 87.4515 11.4654H88.6808ZM148.538 11.4654V15.618H146.736C145.092 15.618 144.403 16.3225 144.403 18.0031V24.7032H139.761V11.5279H142.871L143.596 12.9904C144.546 11.916 145.704 11.4654 147.308 11.4654H148.538ZM156.148 7.67616V11.5283H159.533V15.0236H156.265V19.2158C156.265 20.159 156.848 20.7286 157.827 20.7286H159.608V24.7036H156.415C153.434 24.7036 151.622 22.9224 151.622 19.9944V15.0236H149.156V13.9622L155.195 7.67616H156.148ZM113.942 15.1008C112.203 15.1008 110.925 16.3841 110.925 18.1157C110.925 19.8466 112.203 21.1306 113.942 21.1306C115.67 21.1306 116.959 19.8466 116.959 18.1157C116.959 16.3841 115.68 15.1008 113.942 15.1008ZM96.9852 15.174C95.2933 15.174 94.0788 16.3742 94.0788 18.1157C94.0788 19.858 95.2933 21.0582 96.9852 21.0582C98.6779 21.0582 99.8924 19.858 99.8924 18.1165C99.8924 16.3848 98.6779 15.174 96.9852 15.174ZM130.297 14.6526C128.943 14.6526 128.002 15.3709 127.627 16.6793H133.076C132.668 15.3625 131.698 14.6526 130.297 14.6526ZM70.8948 11.7333H68.8566V15.8783H70.8948C72.1616 15.8783 72.9962 15.0197 72.9962 13.8058C72.9962 12.5912 72.1616 11.7333 70.8948 11.7333Z" fill="#F93A73"/>
</svg>
