<svg width="32" height="32" viewBox="0 0 32 32" fill="none" xmlns="http://www.w3.org/2000/svg">
<path d="M24.2517 0.00957797C23.8681 0.0351192 23.4718 0.137284 23.0626 0.316073V0.277761L22.9859 0.316073C20.9913 1.03123 18.9456 1.98903 16.8487 3.18946C13.9846 4.87519 11.4019 6.8674 9.10039 9.16612C5.3669 12.8951 2.41335 17.5309 0.239736 23.0733V23.1116C-0.0159824 23.8523 -0.0671262 24.5994 0.0863051 25.3529C0.239736 26.1064 0.572171 26.7768 1.08361 27.3643L1.12197 27.4026V27.4409L4.95775 31.2338C5.46918 31.7446 6.10209 32 6.85646 32C7.61083 32 8.24373 31.7446 8.75517 31.2338L13.78 26.2149C14.2915 25.7041 14.5472 25.0655 14.5472 24.2993C14.5472 23.5331 14.2915 22.8945 13.78 22.3837L11.3635 19.9701C12.3097 18.0289 13.4604 16.3496 14.8157 14.9321C16.171 13.5145 17.8332 12.3715 19.8022 11.5031L22.3338 14.0317L22.4489 14.1084C23.0626 14.517 23.7083 14.7086 24.386 14.683C25.0636 14.6575 25.6582 14.3638 26.1696 13.8019L26.208 13.8402L26.2847 13.7252L31.2328 8.82131C31.7443 8.31049 32 7.67195 32 6.90572C32 6.13948 31.7443 5.50095 31.2328 4.99012L27.4354 1.19725C26.8728 0.635339 26.1952 0.264991 25.4025 0.0862017C24.9933 0.00957797 24.6097 -0.0159633 24.2517 0.00957797ZM24.4435 2.46154C24.9294 2.436 25.3385 2.58924 25.671 2.92128L29.5835 6.79078C29.6346 6.84186 29.6602 6.87379 29.6602 6.88656C29.6602 6.89933 29.6346 6.93126 29.5835 6.98234L24.3668 12.1928C24.3412 12.2183 24.3284 12.2311 24.3284 12.2311C24.3284 12.2311 24.3029 12.2311 24.2517 12.2311C24.2006 12.2311 24.0855 12.18 23.9065 12.0778H23.8681H23.7914L20.3392 8.59144L19.6104 8.85962L18.5364 9.31937C17.6414 9.75357 16.7847 10.2389 15.9664 10.7752C14.8413 11.5415 13.8568 12.3588 13.0129 13.2272C11.8622 14.4276 10.8009 15.8707 9.82919 17.5564C9.34332 18.3993 8.97253 19.1144 8.71681 19.7019L8.40995 20.4681L8.98532 21.0811L12.1307 24.2227C12.1818 24.2738 12.2074 24.3057 12.2074 24.3185C12.2074 24.3312 12.1818 24.3632 12.1307 24.4142L6.95235 29.5864C6.90121 29.6374 6.86924 29.663 6.85646 29.663C6.84367 29.663 6.81171 29.6374 6.76056 29.5864L2.92478 25.7935L2.88643 25.7169C2.4517 25.1805 2.33663 24.593 2.5412 23.9545V23.9162C4.58695 18.7313 7.3615 14.3893 10.8648 10.8902C13.0129 8.74469 15.455 6.88018 18.1912 5.29662C20.1602 4.14726 22.0653 3.25332 23.9065 2.61479L23.9449 2.57647H23.9832C24.1367 2.49985 24.2901 2.46154 24.4435 2.46154Z" fill="#F93A73"/>
</svg>
