<svg width="19" height="19" viewBox="0 0 19 19" fill="none" xmlns="http://www.w3.org/2000/svg">
<path d="M14.5547 0.833984C14.3398 0.848307 14.1178 0.905599 13.8887 1.00586V0.984375L13.8457 1.00586C12.7285 1.4069 11.5827 1.94401 10.4082 2.61719C8.80404 3.5625 7.35742 4.67969 6.06836 5.96875C3.97721 8.0599 2.32292 10.6595 1.10547 13.7676V13.7891C0.96224 14.2044 0.933594 14.6234 1.01953 15.0459C1.10547 15.4684 1.29167 15.8444 1.57812 16.1738L1.59961 16.1953V16.2168L3.74805 18.3438C4.03451 18.6302 4.389 18.7734 4.81152 18.7734C5.23405 18.7734 5.58854 18.6302 5.875 18.3438L8.68945 15.5293C8.97591 15.2428 9.11914 14.8848 9.11914 14.4551C9.11914 14.0254 8.97591 13.6673 8.68945 13.3809L7.33594 12.0273C7.86589 10.9388 8.51042 9.99707 9.26953 9.20215C10.0286 8.40723 10.9596 7.76628 12.0625 7.2793L13.4805 8.69727L13.5449 8.74023C13.8887 8.9694 14.2503 9.07682 14.6299 9.0625C15.0094 9.04818 15.3424 8.88346 15.6289 8.56836L15.6504 8.58984L15.6934 8.52539L18.4648 5.77539C18.7513 5.48893 18.8945 5.13086 18.8945 4.70117C18.8945 4.27148 18.7513 3.91341 18.4648 3.62695L16.3379 1.5C16.0228 1.1849 15.6432 0.977214 15.1992 0.876953C14.9701 0.833984 14.7552 0.819661 14.5547 0.833984ZM14.6621 2.20898C14.9342 2.19466 15.1634 2.2806 15.3496 2.4668L17.541 4.63672C17.5697 4.66536 17.584 4.68327 17.584 4.69043C17.584 4.69759 17.5697 4.71549 17.541 4.74414L14.6191 7.66602C14.6048 7.68034 14.5977 7.6875 14.5977 7.6875C14.5977 7.6875 14.5833 7.6875 14.5547 7.6875C14.526 7.6875 14.4616 7.65885 14.3613 7.60156H14.3398H14.2969L12.3633 5.64648L11.9551 5.79688L11.3535 6.05469C10.8522 6.29818 10.3724 6.57031 9.91406 6.87109C9.28385 7.30078 8.73242 7.75911 8.25977 8.24609C7.61523 8.91927 7.02083 9.72852 6.47656 10.6738C6.20443 11.1465 5.99674 11.5475 5.85352 11.877L5.68164 12.3066L6.00391 12.6504L7.76562 14.4121C7.79427 14.4408 7.80859 14.4587 7.80859 14.4658C7.80859 14.473 7.79427 14.4909 7.76562 14.5195L4.86523 17.4199C4.83659 17.4486 4.81868 17.4629 4.81152 17.4629C4.80436 17.4629 4.78646 17.4486 4.75781 17.4199L2.60938 15.293L2.58789 15.25C2.3444 14.9492 2.27995 14.6198 2.39453 14.2617V14.2402C3.54036 11.3327 5.0944 8.89779 7.05664 6.93555C8.25977 5.73242 9.6276 4.68685 11.1602 3.79883C12.263 3.1543 13.3301 2.65299 14.3613 2.29492L14.3828 2.27344H14.4043C14.4902 2.23047 14.5762 2.20898 14.6621 2.20898Z" fill="#F93A73"/>
</svg>
