<svg width="97" height="63" viewBox="0 0 97 63" fill="none" xmlns="http://www.w3.org/2000/svg">
<path fill-rule="evenodd" clip-rule="evenodd" d="M80.9116 50.6116H5.12006C2.6541 50.6116 0.655097 48.5933 0.655097 46.1036V5.22313C0.655097 2.73345 2.6541 0.71521 5.12006 0.71521H80.9116C83.3776 0.71521 85.3766 2.73345 85.3766 5.22313V46.1036C85.3766 48.5933 83.3776 50.6116 80.9116 50.6116Z" fill="#F8F8F8"/>
<path fill-rule="evenodd" clip-rule="evenodd" d="M80.9115 48.3304H7.59208C5.12612 48.3304 3.12712 46.3122 3.12712 43.8225V5.22313C3.12712 2.73345 5.12612 0.71521 7.59208 0.71521H80.9115C83.3774 0.71521 85.3765 2.73345 85.3765 5.22313V43.8225C85.3765 46.3122 83.3774 48.3304 80.9115 48.3304Z" fill="white"/>
<path fill-rule="evenodd" clip-rule="evenodd" d="M69.5533 50.4161C67.9917 50.4161 66.43 50.4161 64.8683 50.4161C60.9357 50.4161 57.0031 50.4161 53.0704 50.4161C47.9655 50.4161 42.8605 50.4161 37.7556 50.4161C32.6038 50.4161 27.4522 50.4161 22.3004 50.4161C18.3114 50.4161 14.3225 50.4161 10.3335 50.4161C8.64359 50.4161 6.95086 50.4449 5.26109 50.4161C2.73229 50.3731 1.00482 48.2595 0.996066 45.8031C0.992394 44.7918 0.996066 43.7803 0.996066 42.7689C0.996066 38.3566 0.996066 33.9443 0.996066 29.5321C0.996066 24.3696 0.996066 19.2071 0.996066 14.0445C0.996066 11.1354 0.98011 8.22561 0.996066 5.31637C1.00877 3.00032 2.62244 0.950296 5.01878 0.910094C5.49563 0.902111 5.97331 0.910094 6.45015 0.910094C9.1635 0.910094 11.8768 0.910094 14.5903 0.910094C18.9778 0.910094 23.3654 0.910094 27.7528 0.910094C32.9373 0.910094 38.1219 0.910094 43.3063 0.910094C48.4686 0.910094 53.6309 0.910094 58.7932 0.910094C63.1139 0.910094 67.4344 0.910094 71.7549 0.910094C74.3573 0.910094 76.9596 0.910094 79.5619 0.910094C79.9654 0.910094 80.3698 0.902538 80.7734 0.910094C83.3848 0.958565 85.0356 3.14716 85.0356 5.6434C85.0356 9.43054 85.0356 13.2178 85.0356 17.0049C85.0356 21.7621 85.0356 26.519 85.0356 31.2762C85.0356 32.1164 85.0356 32.9568 85.0356 33.7971C85.0356 34.0088 85.7176 33.8799 85.7176 33.6126C85.7176 30.4969 85.7176 27.3811 85.7176 24.2654C85.7176 19.2138 85.7176 14.162 85.7176 9.1102C85.7176 7.83571 85.7245 6.56093 85.7176 5.28643C85.703 2.62909 83.6779 0.566094 81.0419 0.519762C79.6012 0.494386 78.1577 0.519762 76.7168 0.519762C73.0848 0.519762 69.4527 0.519762 65.8207 0.519762C60.9024 0.519762 55.984 0.519762 51.0656 0.519762C45.6954 0.519762 40.3252 0.519762 34.955 0.519762C30.0519 0.519762 25.1486 0.519762 20.2455 0.519762C16.6441 0.519762 13.0426 0.519762 9.44125 0.519762C8.04588 0.519762 6.64798 0.494814 5.25276 0.519762C2.55339 0.567948 0.330719 2.62068 0.314058 5.39364C0.308692 6.29063 0.314058 7.18791 0.314058 8.0849C0.314058 12.4454 0.314058 16.8059 0.314058 21.1664C0.314058 26.4175 0.314058 31.6686 0.314058 36.9196C0.314058 39.9423 0.303326 42.965 0.314058 45.9876C0.322812 48.4074 1.97799 50.4788 4.41288 50.7694C4.98377 50.8375 5.57329 50.8064 6.14713 50.8064C9.05675 50.8064 11.9665 50.8064 14.8763 50.8064C19.5967 50.8064 24.3171 50.8064 29.0375 50.8064C34.392 50.8064 39.7464 50.8064 45.1008 50.8064C49.8318 50.8064 54.5628 50.8064 59.2938 50.8064C62.2247 50.8064 65.1557 50.8064 68.0866 50.8064C68.4871 50.8064 68.8875 50.8064 69.288 50.8064C69.5444 50.8064 70.012 50.4161 69.5533 50.4161Z" fill="#343F4D"/>
<path fill-rule="evenodd" clip-rule="evenodd" d="M36.7812 25.6632C36.7812 34.3239 29.8273 41.3449 21.249 41.3449C12.6708 41.3449 5.71669 34.3239 5.71669 25.6632C5.71669 17.0025 12.6708 9.98148 21.249 9.98148C29.8273 9.98148 36.7812 17.0025 36.7812 25.6632Z" fill="#F93A73"/>
<path fill-rule="evenodd" clip-rule="evenodd" d="M24.2182 25.9852C25.8111 24.9663 26.872 23.1748 26.8783 21.13C26.8882 17.9453 24.3392 15.3554 21.1848 15.3454C18.0305 15.3354 15.4654 17.9089 15.4555 21.0936C15.4491 23.1385 16.4987 24.9368 18.0851 25.9656C13.6604 27.0414 10.1225 30.4215 8.79242 34.7825C11.5635 38.6181 16.0418 41.1179 21.1044 41.134C26.1671 41.1501 30.6609 38.6786 33.4558 34.8609C32.153 30.4915 28.6362 27.089 24.2182 25.9852Z" fill="white"/>
<path fill-rule="evenodd" clip-rule="evenodd" d="M33.4217 33.6877C31.8404 29.7942 28.5351 26.8947 24.498 25.8507C24.4919 25.8996 24.4858 25.9485 24.4798 25.9973C26.2615 24.8129 27.3432 22.8166 27.2072 20.6431C27.0826 18.6502 25.8921 16.8177 24.1446 15.889C20.7691 14.095 16.1932 16.0117 15.2801 19.8057C14.6968 22.2289 15.7292 24.7125 17.7639 26.0838C17.8613 26.0082 17.9586 25.9325 18.056 25.8568C13.9517 26.8907 10.5284 29.7439 8.86814 33.6887C8.81914 33.8053 9.46571 33.7482 9.54111 33.5688C11.097 29.8724 14.2371 27.0516 18.1139 26.075C18.136 26.0695 18.5282 25.9303 18.4061 25.848C15.1906 23.6808 14.8882 18.7804 18.0994 16.4378C21.3425 14.0719 25.8357 16.4739 26.4593 20.2489C26.8298 22.4921 25.8275 24.7296 23.9566 25.9734C23.8955 26.0141 23.8314 26.0925 23.9384 26.1201C27.9253 27.1511 31.1794 30.0305 32.7398 33.8722C32.8078 34.0396 33.4752 33.8194 33.4217 33.6877Z" fill="#343F4D"/>
<path fill-rule="evenodd" clip-rule="evenodd" d="M36.4358 25.6882C36.3961 32.0704 32.4652 37.9577 26.4872 40.1671C20.4731 42.3901 13.5628 40.4153 9.52427 35.4221C5.51299 30.4627 4.95708 23.3175 8.16421 17.7899C11.4081 12.1989 17.9542 9.26102 24.239 10.5492C31.2897 11.9943 36.3909 18.4739 36.4358 25.6882C36.438 26.0527 37.1292 25.9533 37.1272 25.638C37.0857 18.9706 32.9042 12.8978 26.6581 10.6516C20.4343 8.41321 13.28 10.3901 9.04404 15.5025C4.78481 20.6431 4.19473 28.1465 7.62072 33.8923C11.0452 39.6355 17.8345 42.5781 24.3254 41.2901C30.7272 40.0198 35.8618 34.705 36.9208 28.201C37.0589 27.353 37.1219 26.4969 37.1272 25.638C37.1295 25.2739 36.4378 25.3723 36.4358 25.6882Z" fill="#343F4D"/>
<path fill-rule="evenodd" clip-rule="evenodd" d="M42.6605 18.3033C46.3287 18.3033 49.9969 18.3033 53.6649 18.3033C59.5109 18.3033 65.357 18.3033 71.2031 18.3033C72.5442 18.3033 73.8854 18.3033 75.2265 18.3033C75.5216 18.3033 75.9353 17.8527 75.4759 17.8527C71.8077 17.8527 68.1395 17.8527 64.4715 17.8527C58.6255 17.8527 52.7794 17.8527 46.9333 17.8527C45.5922 17.8527 44.251 17.8527 42.9099 17.8527C42.6148 17.8527 42.2011 18.3033 42.6605 18.3033Z" fill="#343F4D"/>
<path fill-rule="evenodd" clip-rule="evenodd" d="M42.7504 25.8986C46.4185 25.8986 50.0865 25.8986 53.7547 25.8986C59.6008 25.8986 65.4468 25.8986 71.2929 25.8986C72.634 25.8986 73.9752 25.8986 75.3163 25.8986C75.6933 25.8986 75.8502 25.4276 75.3855 25.4276C71.7175 25.4276 68.0493 25.4276 64.3812 25.4276C58.5351 25.4276 52.6892 25.4276 46.8431 25.4276C45.502 25.4276 44.1608 25.4276 42.8197 25.4276C42.4425 25.4276 42.2857 25.8986 42.7504 25.8986Z" fill="#343F4D"/>
<path fill-rule="evenodd" clip-rule="evenodd" d="M42.6589 33.4659C46.327 33.4659 49.9951 33.4659 53.6632 33.4659C59.5093 33.4659 65.3553 33.4659 71.2014 33.4659C72.5425 33.4659 73.8837 33.4659 75.2248 33.4659C75.5106 33.4659 75.9375 33.0298 75.4779 33.0298C71.8098 33.0298 68.1417 33.0298 64.4735 33.0298C58.6276 33.0298 52.7815 33.0298 46.9355 33.0298C45.5943 33.0298 44.2532 33.0298 42.9121 33.0298C42.6263 33.0298 42.1993 33.4659 42.6589 33.4659Z" fill="#343F4D"/>
<path fill-rule="evenodd" clip-rule="evenodd" d="M96.992 48.7581C96.992 56.1009 91.0964 62.0532 83.8236 62.0532C76.5508 62.0532 70.6552 56.1009 70.6552 48.7581C70.6552 41.4154 76.5508 35.463 83.8236 35.463C91.0964 35.463 96.992 41.4154 96.992 48.7581Z" fill="#FFBFCC"/>
<path fill-rule="evenodd" clip-rule="evenodd" d="M76.2155 45.9699C78.5057 48.2821 80.7958 50.5943 83.086 52.9065C83.3714 53.1946 84.0315 53.0816 84.2734 52.7771C85.306 51.4766 86.3987 50.221 87.514 48.9924C89.5156 46.7874 91.6239 44.5874 94.0633 42.8712C94.8213 42.3379 93.6789 42.0126 93.189 42.3572C90.7125 44.0994 88.5574 46.3098 86.5202 48.5446C85.3615 49.8157 84.2272 51.1162 83.1566 52.4644C83.5524 52.4214 83.9482 52.3782 84.344 52.3351C82.0538 50.0229 79.7636 47.7107 77.4735 45.3985C77.0905 45.0119 75.7954 45.5458 76.2155 45.9699Z" fill="white"/>
</svg>
