<svg width="379" height="344" viewBox="0 0 379 344" fill="none" xmlns="http://www.w3.org/2000/svg">
<g filter="url(#filter0_d_4_81)">
<rect x="14" y="14" width="351" height="316" rx="12" fill="#F7F7F7"/>
</g>
<rect x="48.9705" y="111" width="281.059" height="9.49356" rx="4.74678" fill="#DEDEDE"/>
<rect x="49" y="93" width="99" height="9" rx="4.5" fill="#343F4D"/>
<rect x="48.9705" y="129.494" width="281.059" height="9.49356" rx="4.74678" fill="#DEDEDE"/>
<rect x="48.9705" y="147.987" width="281.059" height="9.49356" rx="4.74678" fill="#DEDEDE"/>
<rect x="139.635" y="176" width="99.7306" height="28.4807" rx="14.2403" fill="#F93A73"/>
<ellipse cx="213.742" cy="42.6154" rx="16.2581" ry="16.6154" fill="#ECECEC"/>
<path d="M216.316 35H170.523C168.577 35 167 36.6118 167 38.6V67.4C167 69.3882 168.577 71 170.523 71H216.316C218.262 71 219.839 69.3882 219.839 67.4V38.6C219.839 36.6118 218.262 35 216.316 35ZM170.523 36.8H216.316C217.289 36.8 218.077 37.6059 218.077 38.6V44H199.5C197.484 43.9982 195.533 43.2761 193.983 41.9588C192.118 40.3726 189.769 39.5028 187.343 39.5H168.761V38.6C168.761 37.6059 169.55 36.8 170.523 36.8ZM216.316 69.2H170.523C169.55 69.2 168.761 68.3941 168.761 67.4V41.3H187.343C189.359 41.3018 191.31 42.0239 192.86 43.3412C194.725 44.9274 197.074 45.7972 199.5 45.8H218.077V67.4C218.077 68.3941 217.289 69.2 216.316 69.2Z" fill="#343F4D"/>
<path d="M185.855 55.1906C187.916 52.6236 187.674 48.8627 185.301 46.5942C182.929 44.3258 179.241 44.3285 176.871 46.6006C174.502 48.8726 174.265 52.6339 176.33 55.1978C173.276 56.9334 171.389 60.2294 171.403 63.8C171.403 65.2912 172.586 66.5 174.045 66.5H188.135C189.592 66.4926 190.77 65.2881 190.777 63.8C190.791 60.2289 188.906 56.9319 185.855 55.1906ZM181.09 46.7C183.522 46.7 185.494 48.7147 185.494 51.2C185.494 53.6853 183.522 55.7 181.09 55.7C178.658 55.7 176.687 53.6853 176.687 51.2C176.69 48.716 178.66 46.703 181.09 46.7ZM188.747 64.4408C188.586 64.6087 188.365 64.7024 188.135 64.7H174.045C173.559 64.7 173.165 64.2971 173.165 63.8C173.154 60.6549 174.941 57.7931 177.738 56.4794C179.77 57.8372 182.395 57.84 184.431 56.4866C187.231 57.7937 189.024 60.6539 189.016 63.8C189.017 64.0425 188.919 64.2745 188.747 64.4408Z" fill="#343F4D"/>
<path d="M212.794 50.3H195.181C194.694 50.3 194.3 50.7029 194.3 51.2C194.3 51.6971 194.694 52.1 195.181 52.1H212.794C213.28 52.1 213.674 51.6971 213.674 51.2C213.674 50.7029 213.28 50.3 212.794 50.3Z" fill="#343F4D"/>
<path d="M195.181 56.6H203.987C204.473 56.6 204.868 56.1971 204.868 55.7C204.868 55.203 204.473 54.8 203.987 54.8H195.181C194.694 54.8 194.3 55.203 194.3 55.7C194.3 56.1971 194.694 56.6 195.181 56.6Z" fill="#343F4D"/>
<path d="M212.794 59.3H195.181C194.694 59.3 194.3 59.7029 194.3 60.2C194.3 60.6971 194.694 61.1 195.181 61.1H212.794C213.28 61.1 213.674 60.6971 213.674 60.2C213.674 59.7029 213.28 59.3 212.794 59.3Z" fill="#343F4D"/>
<path d="M203.987 63.8H195.181C194.694 63.8 194.3 64.2029 194.3 64.7C194.3 65.1971 194.694 65.6 195.181 65.6H203.987C204.473 65.6 204.868 65.1971 204.868 64.7C204.868 64.2029 204.473 63.8 203.987 63.8Z" fill="#343F4D"/>
<path d="M199.584 41.3H203.106C203.593 41.3 203.987 40.8971 203.987 40.4C203.987 39.9029 203.593 39.5 203.106 39.5H199.584C199.097 39.5 198.703 39.9029 198.703 40.4C198.703 40.8971 199.097 41.3 199.584 41.3Z" fill="#343F4D"/>
<path d="M206.629 41.3H214.555C215.041 41.3 215.435 40.8971 215.435 40.4C215.435 39.9029 215.041 39.5 214.555 39.5H206.629C206.143 39.5 205.748 39.9029 205.748 40.4C205.748 40.8971 206.143 41.3 206.629 41.3Z" fill="#343F4D"/>
<defs>
<filter id="filter0_d_4_81" x="0" y="0" width="379" height="344" filterUnits="userSpaceOnUse" color-interpolation-filters="sRGB">
<feFlood flood-opacity="0" result="BackgroundImageFix"/>
<feColorMatrix in="SourceAlpha" type="matrix" values="0 0 0 0 0 0 0 0 0 0 0 0 0 0 0 0 0 0 127 0" result="hardAlpha"/>
<feMorphology radius="3" operator="dilate" in="SourceAlpha" result="effect1_dropShadow_4_81"/>
<feOffset/>
<feGaussianBlur stdDeviation="5.5"/>
<feComposite in2="hardAlpha" operator="out"/>
<feColorMatrix type="matrix" values="0 0 0 0 0 0 0 0 0 0.136088 0 0 0 0 0.5125 0 0 0 0.08 0"/>
<feBlend mode="normal" in2="BackgroundImageFix" result="effect1_dropShadow_4_81"/>
<feBlend mode="normal" in="SourceGraphic" in2="effect1_dropShadow_4_81" result="shape"/>
</filter>
</defs>
</svg>
