<svg width="57" height="69" viewBox="0 0 57 69" fill="none" xmlns="http://www.w3.org/2000/svg">
<ellipse cx="40.1111" cy="16.9846" rx="16.8889" ry="16.9846" fill="#ECECEC"/>
<path fill-rule="evenodd" clip-rule="evenodd" d="M33.7777 5.30769C34.0576 5.30769 34.326 5.41965 34.524 5.61869L46.1352 17.2957C46.3332 17.4947 46.4445 17.7646 46.4445 18.0462V65.8154C46.4445 67.5743 45.0267 69 43.2778 69H3.16667C1.41783 69 0 67.5741 0 65.8154V8.49231C0 6.73356 1.41783 5.30769 3.16667 5.30769H33.7777ZM42.8408 16.9847L34.8333 8.93181V15.9232C34.8333 16.5093 35.3059 16.9847 35.8888 16.9847H42.8408ZM3.16667 66.8769H43.2777C43.8607 66.8769 44.3333 66.4017 44.3333 65.8154V19.1078H35.8888C34.14 19.1078 32.7222 17.6819 32.7222 15.9232V7.43081H3.16667C2.5838 7.43081 2.11115 7.90602 2.11115 8.49231V65.8154C2.11115 66.4017 2.58368 66.8769 3.16667 66.8769ZM7.38885 60.5077C7.38885 58.1626 9.2792 56.2615 11.611 56.2615H34.8333C37.1652 56.2615 39.0555 58.1626 39.0554 60.5077C39.0554 62.8527 37.165 64.7538 34.8332 64.7538H11.611C9.2792 64.7538 7.38885 62.8527 7.38885 60.5077ZM9.49988 60.5077C9.49988 61.6802 10.4451 62.6308 11.611 62.6308H34.8333C35.9992 62.6308 36.9444 61.6802 36.9444 60.5077C36.9444 59.3351 35.9992 58.3845 34.8332 58.3845H11.611C10.4451 58.3845 9.49988 59.3351 9.49988 60.5077ZM19.4485 41.6325C19.23 41.4564 18.9508 41.375 18.6723 41.4061C18.3939 41.4372 18.1393 41.5781 17.9644 41.798L17.3955 42.5135C17.2284 42.4821 17.0589 42.4647 16.8888 42.4615H10.5555C8.80667 42.4615 7.38885 43.8873 7.38885 45.6461V50.9538C7.38885 52.7126 8.80667 54.1384 10.5555 54.1384H16.8888C18.6377 54.1384 20.0555 52.7126 20.0555 50.9538V45.6461C20.0525 44.8783 19.7715 44.1377 19.265 43.5634L19.6133 43.125C19.7883 42.9052 19.8693 42.6243 19.8384 42.3444C19.8075 42.0645 19.6672 41.8084 19.4485 41.6325ZM17.9444 45.6462V50.9539C17.9444 51.5402 17.4717 52.0154 16.8888 52.0154H10.5555C9.97253 52.0154 9.5 51.5402 9.5 50.9539V45.6462C9.5 45.0599 9.97253 44.5847 10.5555 44.5847H15.7477L13.6366 47.2385L13.4149 47.0156C13.0008 46.6133 12.3423 46.619 11.9352 47.0285C11.5282 47.438 11.5223 48.1001 11.9224 48.5166L12.9779 49.5781C13.1743 49.7785 13.4423 49.8917 13.7221 49.8923H13.7812C14.0807 49.8756 14.3589 49.7317 14.5465 49.4963L17.8768 45.3107C17.9175 45.418 17.9403 45.5314 17.9444 45.6462ZM27.4444 46.7077H23.2222C22.6392 46.7077 22.1667 46.2324 22.1667 45.6462C22.1667 45.06 22.6392 44.5847 23.2222 44.5847H27.4444C28.0272 44.5847 28.4999 45.0599 28.4999 45.6462C28.4999 46.2325 28.0273 46.7077 27.4444 46.7077ZM7.38885 14.8615H15.8333C16.4163 14.8615 16.8888 14.3863 16.8888 13.8C16.8888 13.2137 16.4162 12.7385 15.8333 12.7385H7.38885C6.80586 12.7385 6.33333 13.2139 6.33333 13.8C6.33333 14.3863 6.80586 14.8615 7.38885 14.8615ZM23.2222 48.8308H39.0555C39.6385 48.8308 40.111 49.306 40.111 49.8923C40.111 50.4786 39.6385 50.9538 39.0555 50.9538H23.2222C22.6393 50.9538 22.1667 50.4786 22.1667 49.8923C22.1667 49.306 22.6392 48.8308 23.2222 48.8308ZM39.0555 37.1538H7.38885C6.80586 37.1538 6.33333 37.6292 6.33333 38.2153C6.33333 38.8015 6.80598 39.2768 7.38885 39.2768H39.0555C39.6385 39.2768 40.111 38.8016 40.111 38.2153C40.111 37.629 39.6385 37.1538 39.0555 37.1538ZM7.38885 31.8461H39.0555C39.6385 31.8461 40.111 32.3214 40.111 32.9076C40.111 33.4938 39.6385 33.9691 39.0555 33.9691H7.38885C6.80598 33.9691 6.33333 33.4939 6.33333 32.9076C6.33333 32.3214 6.80586 31.8461 7.38885 31.8461ZM39.0555 26.5385H7.38885C6.80586 26.5385 6.33333 27.0138 6.33333 27.6C6.33333 28.1862 6.80598 28.6615 7.38885 28.6615H39.0555C39.6385 28.6615 40.111 28.1863 40.111 27.6C40.111 27.0137 39.6385 26.5385 39.0555 26.5385ZM7.38885 21.2308H39.0555C39.6385 21.2308 40.111 21.7061 40.111 22.2923C40.111 22.8784 39.6385 23.3538 39.0555 23.3538H7.38885C6.80598 23.3538 6.33333 22.8784 6.33333 22.2923C6.33333 21.7061 6.80586 21.2308 7.38885 21.2308Z" fill="#343F4D"/>
</svg>
